<mxfile host="app.diagrams.net" modified="2022-03-31T08:59:38.775Z" agent="5.0 (Windows NT 10.0; Win64; x64) AppleWebKit/537.36 (KHTML, like Gecko) Chrome/99.0.4844.74 Safari/537.36 Edg/99.0.1150.55" etag="wdNx7pdHd1p0TfrAr-uB" version="17.2.1" type="github">
  <diagram id="ez6Pmv2kusKLnf8vKSny" name="Page-1">
    <mxGraphModel dx="1763" dy="1069" grid="0" gridSize="10" guides="1" tooltips="0" connect="1" arrows="1" fold="1" page="0" pageScale="1" pageWidth="827" pageHeight="1169" background="none" math="0" shadow="0">
      <root>
        <mxCell id="0" />
        <mxCell id="1" parent="0" />
        <mxCell id="bsMHO7k-jK4RVr3ezQjx-1" value="BEGIN" style="ellipse;whiteSpace=wrap;html=1;" parent="1" vertex="1">
          <mxGeometry x="339" y="-87" width="100" height="50" as="geometry" />
        </mxCell>
        <mxCell id="bsMHO7k-jK4RVr3ezQjx-4" value="" style="endArrow=classic;html=1;rounded=0;entryX=0.498;entryY=-0.251;entryDx=0;entryDy=0;entryPerimeter=0;" parent="1" source="bsMHO7k-jK4RVr3ezQjx-1" target="Ww31mLnuFzs7qHQlqa_S-3" edge="1">
          <mxGeometry width="50" height="50" relative="1" as="geometry">
            <mxPoint x="400" y="124" as="sourcePoint" />
            <mxPoint x="390" y="-55" as="targetPoint" />
          </mxGeometry>
        </mxCell>
        <mxCell id="bsMHO7k-jK4RVr3ezQjx-8" value="" style="endArrow=none;html=1;rounded=0;entryX=1;entryY=0.5;entryDx=0;entryDy=0;" parent="1" target="bsMHO7k-jK4RVr3ezQjx-62" edge="1">
          <mxGeometry width="50" height="50" relative="1" as="geometry">
            <mxPoint x="510" y="117" as="sourcePoint" />
            <mxPoint x="440" y="-33" as="targetPoint" />
          </mxGeometry>
        </mxCell>
        <mxCell id="bsMHO7k-jK4RVr3ezQjx-9" value="" style="endArrow=none;html=1;rounded=0;exitX=0;exitY=0.5;exitDx=0;exitDy=0;" parent="1" source="bsMHO7k-jK4RVr3ezQjx-62" edge="1">
          <mxGeometry width="50" height="50" relative="1" as="geometry">
            <mxPoint x="390" y="17" as="sourcePoint" />
            <mxPoint x="270" y="117" as="targetPoint" />
          </mxGeometry>
        </mxCell>
        <mxCell id="bsMHO7k-jK4RVr3ezQjx-14" value="" style="endArrow=none;html=1;rounded=0;" parent="1" edge="1">
          <mxGeometry width="50" height="50" relative="1" as="geometry">
            <mxPoint x="270" y="253" as="sourcePoint" />
            <mxPoint x="390" y="253" as="targetPoint" />
          </mxGeometry>
        </mxCell>
        <mxCell id="bsMHO7k-jK4RVr3ezQjx-15" value="" style="endArrow=classic;html=1;rounded=0;entryX=0.5;entryY=0;entryDx=0;entryDy=0;" parent="1" target="bsMHO7k-jK4RVr3ezQjx-21" edge="1">
          <mxGeometry width="50" height="50" relative="1" as="geometry">
            <mxPoint x="390" y="253" as="sourcePoint" />
            <mxPoint x="390" y="273" as="targetPoint" />
          </mxGeometry>
        </mxCell>
        <mxCell id="bsMHO7k-jK4RVr3ezQjx-16" value="" style="endArrow=none;html=1;rounded=0;entryX=0.5;entryY=1;entryDx=0;entryDy=0;" parent="1" edge="1">
          <mxGeometry width="50" height="50" relative="1" as="geometry">
            <mxPoint x="510" y="253" as="sourcePoint" />
            <mxPoint x="510" y="217" as="targetPoint" />
          </mxGeometry>
        </mxCell>
        <mxCell id="bsMHO7k-jK4RVr3ezQjx-17" value="" style="endArrow=none;html=1;rounded=0;" parent="1" edge="1">
          <mxGeometry width="50" height="50" relative="1" as="geometry">
            <mxPoint x="390" y="253" as="sourcePoint" />
            <mxPoint x="510" y="253" as="targetPoint" />
          </mxGeometry>
        </mxCell>
        <mxCell id="bsMHO7k-jK4RVr3ezQjx-18" value="0" style="text;html=1;align=center;verticalAlign=middle;resizable=0;points=[];autosize=1;strokeColor=none;fillColor=none;" parent="1" vertex="1">
          <mxGeometry x="290" y="87" width="20" height="20" as="geometry" />
        </mxCell>
        <mxCell id="bsMHO7k-jK4RVr3ezQjx-19" value="1" style="text;html=1;align=center;verticalAlign=middle;resizable=0;points=[];autosize=1;strokeColor=none;fillColor=none;strokeWidth=1;" parent="1" vertex="1">
          <mxGeometry x="460" y="87" width="20" height="20" as="geometry" />
        </mxCell>
        <mxCell id="bsMHO7k-jK4RVr3ezQjx-21" value="PHI1" style="rhombus;whiteSpace=wrap;html=1;strokeWidth=1;" parent="1" vertex="1">
          <mxGeometry x="320" y="276" width="140" height="80" as="geometry" />
        </mxCell>
        <mxCell id="bsMHO7k-jK4RVr3ezQjx-24" value="" style="endArrow=none;html=1;rounded=0;exitX=1;exitY=0.5;exitDx=0;exitDy=0;" parent="1" source="bsMHO7k-jK4RVr3ezQjx-21" edge="1">
          <mxGeometry width="50" height="50" relative="1" as="geometry">
            <mxPoint x="400" y="271" as="sourcePoint" />
            <mxPoint x="510" y="316" as="targetPoint" />
          </mxGeometry>
        </mxCell>
        <mxCell id="bsMHO7k-jK4RVr3ezQjx-25" value="" style="endArrow=none;html=1;rounded=0;exitX=0;exitY=0.5;exitDx=0;exitDy=0;" parent="1" source="bsMHO7k-jK4RVr3ezQjx-21" edge="1">
          <mxGeometry width="50" height="50" relative="1" as="geometry">
            <mxPoint x="400" y="271" as="sourcePoint" />
            <mxPoint x="270" y="316" as="targetPoint" />
          </mxGeometry>
        </mxCell>
        <mxCell id="bsMHO7k-jK4RVr3ezQjx-26" value="1" style="text;html=1;align=center;verticalAlign=middle;resizable=0;points=[];autosize=1;strokeColor=none;fillColor=none;strokeWidth=1;" parent="1" vertex="1">
          <mxGeometry x="460" y="291" width="20" height="20" as="geometry" />
        </mxCell>
        <mxCell id="bsMHO7k-jK4RVr3ezQjx-27" value="0" style="text;html=1;align=center;verticalAlign=middle;resizable=0;points=[];autosize=1;strokeColor=none;fillColor=none;" parent="1" vertex="1">
          <mxGeometry x="290" y="291" width="20" height="20" as="geometry" />
        </mxCell>
        <mxCell id="bsMHO7k-jK4RVr3ezQjx-29" value="" style="endArrow=classic;html=1;rounded=0;entryX=0.5;entryY=0;entryDx=0;entryDy=0;" parent="1" edge="1">
          <mxGeometry width="50" height="50" relative="1" as="geometry">
            <mxPoint x="510" y="316" as="sourcePoint" />
            <mxPoint x="510" y="366" as="targetPoint" />
          </mxGeometry>
        </mxCell>
        <mxCell id="bsMHO7k-jK4RVr3ezQjx-32" value="" style="endArrow=classic;html=1;rounded=0;entryX=0.5;entryY=0;entryDx=0;entryDy=0;" parent="1" edge="1">
          <mxGeometry width="50" height="50" relative="1" as="geometry">
            <mxPoint x="270" y="316" as="sourcePoint" />
            <mxPoint x="270" y="366" as="targetPoint" />
          </mxGeometry>
        </mxCell>
        <mxCell id="bsMHO7k-jK4RVr3ezQjx-33" value="" style="endArrow=none;html=1;rounded=0;exitX=0.5;exitY=1;exitDx=0;exitDy=0;" parent="1" edge="1">
          <mxGeometry width="50" height="50" relative="1" as="geometry">
            <mxPoint x="270" y="426" as="sourcePoint" />
            <mxPoint x="270" y="446" as="targetPoint" />
          </mxGeometry>
        </mxCell>
        <mxCell id="bsMHO7k-jK4RVr3ezQjx-34" value="" style="endArrow=none;html=1;rounded=0;exitX=0.5;exitY=1;exitDx=0;exitDy=0;" parent="1" edge="1">
          <mxGeometry width="50" height="50" relative="1" as="geometry">
            <mxPoint x="510" y="426" as="sourcePoint" />
            <mxPoint x="510" y="446" as="targetPoint" />
          </mxGeometry>
        </mxCell>
        <mxCell id="bsMHO7k-jK4RVr3ezQjx-35" value="" style="endArrow=none;html=1;rounded=0;" parent="1" edge="1">
          <mxGeometry width="50" height="50" relative="1" as="geometry">
            <mxPoint x="270" y="446" as="sourcePoint" />
            <mxPoint x="390" y="446" as="targetPoint" />
          </mxGeometry>
        </mxCell>
        <mxCell id="bsMHO7k-jK4RVr3ezQjx-36" value="" style="endArrow=none;html=1;rounded=0;" parent="1" edge="1">
          <mxGeometry width="50" height="50" relative="1" as="geometry">
            <mxPoint x="390" y="446" as="sourcePoint" />
            <mxPoint x="510" y="446" as="targetPoint" />
          </mxGeometry>
        </mxCell>
        <mxCell id="bsMHO7k-jK4RVr3ezQjx-37" value="" style="endArrow=classic;html=1;rounded=0;" parent="1" edge="1">
          <mxGeometry width="50" height="50" relative="1" as="geometry">
            <mxPoint x="389.5" y="446" as="sourcePoint" />
            <mxPoint x="389.5" y="476" as="targetPoint" />
          </mxGeometry>
        </mxCell>
        <mxCell id="bsMHO7k-jK4RVr3ezQjx-38" value="FC" style="rhombus;whiteSpace=wrap;html=1;strokeWidth=1;" parent="1" vertex="1">
          <mxGeometry x="330" y="476" width="120" height="80" as="geometry" />
        </mxCell>
        <mxCell id="bsMHO7k-jK4RVr3ezQjx-39" value="" style="endArrow=none;html=1;rounded=0;entryX=1;entryY=0.5;entryDx=0;entryDy=0;" parent="1" target="bsMHO7k-jK4RVr3ezQjx-38" edge="1">
          <mxGeometry width="50" height="50" relative="1" as="geometry">
            <mxPoint x="510" y="516" as="sourcePoint" />
            <mxPoint x="280" y="556" as="targetPoint" />
          </mxGeometry>
        </mxCell>
        <mxCell id="bsMHO7k-jK4RVr3ezQjx-40" value="" style="endArrow=none;html=1;rounded=0;entryX=0;entryY=0.5;entryDx=0;entryDy=0;" parent="1" target="bsMHO7k-jK4RVr3ezQjx-38" edge="1">
          <mxGeometry width="50" height="50" relative="1" as="geometry">
            <mxPoint x="270" y="516" as="sourcePoint" />
            <mxPoint x="440" y="526" as="targetPoint" />
          </mxGeometry>
        </mxCell>
        <mxCell id="bsMHO7k-jK4RVr3ezQjx-41" value="True" style="text;html=1;align=center;verticalAlign=middle;resizable=0;points=[];autosize=1;strokeColor=none;fillColor=none;" parent="1" vertex="1">
          <mxGeometry x="450" y="496" width="40" height="20" as="geometry" />
        </mxCell>
        <mxCell id="bsMHO7k-jK4RVr3ezQjx-42" value="False" style="text;html=1;align=center;verticalAlign=middle;resizable=0;points=[];autosize=1;strokeColor=none;fillColor=none;" parent="1" vertex="1">
          <mxGeometry x="280" y="496" width="40" height="20" as="geometry" />
        </mxCell>
        <mxCell id="bsMHO7k-jK4RVr3ezQjx-43" value="" style="endArrow=classic;html=1;rounded=0;" parent="1" target="bsMHO7k-jK4RVr3ezQjx-44" edge="1">
          <mxGeometry width="50" height="50" relative="1" as="geometry">
            <mxPoint x="510" y="516" as="sourcePoint" />
            <mxPoint x="490" y="576" as="targetPoint" />
          </mxGeometry>
        </mxCell>
        <mxCell id="bsMHO7k-jK4RVr3ezQjx-44" value="END" style="ellipse;whiteSpace=wrap;html=1;strokeWidth=1;" parent="1" vertex="1">
          <mxGeometry x="460" y="575.5" width="100" height="50" as="geometry" />
        </mxCell>
        <mxCell id="bsMHO7k-jK4RVr3ezQjx-47" value="" style="endArrow=classic;html=1;rounded=0;entryX=0.478;entryY=0.002;entryDx=0;entryDy=0;entryPerimeter=0;" parent="1" edge="1" target="OqcFMhrwLSE0nuiAkA_E-14">
          <mxGeometry width="50" height="50" relative="1" as="geometry">
            <mxPoint x="270" y="516" as="sourcePoint" />
            <mxPoint x="270" y="536" as="targetPoint" />
          </mxGeometry>
        </mxCell>
        <mxCell id="bsMHO7k-jK4RVr3ezQjx-48" value="" style="endArrow=none;html=1;rounded=0;exitX=0.5;exitY=1;exitDx=0;exitDy=0;" parent="1" edge="1">
          <mxGeometry width="50" height="50" relative="1" as="geometry">
            <mxPoint x="269.87" y="634.5" as="sourcePoint" />
            <mxPoint x="269.87" y="654.5" as="targetPoint" />
          </mxGeometry>
        </mxCell>
        <mxCell id="bsMHO7k-jK4RVr3ezQjx-49" value="" style="endArrow=none;html=1;rounded=0;" parent="1" edge="1">
          <mxGeometry width="50" height="50" relative="1" as="geometry">
            <mxPoint x="270" y="655" as="sourcePoint" />
            <mxPoint x="190" y="655" as="targetPoint" />
          </mxGeometry>
        </mxCell>
        <mxCell id="bsMHO7k-jK4RVr3ezQjx-50" value="" style="endArrow=none;html=1;rounded=0;" parent="1" edge="1">
          <mxGeometry width="50" height="50" relative="1" as="geometry">
            <mxPoint x="190" y="655" as="sourcePoint" />
            <mxPoint x="190" y="253" as="targetPoint" />
          </mxGeometry>
        </mxCell>
        <mxCell id="bsMHO7k-jK4RVr3ezQjx-51" value="" style="endArrow=classic;html=1;rounded=0;" parent="1" edge="1">
          <mxGeometry width="50" height="50" relative="1" as="geometry">
            <mxPoint x="190" y="253" as="sourcePoint" />
            <mxPoint x="270" y="253" as="targetPoint" />
          </mxGeometry>
        </mxCell>
        <mxCell id="bsMHO7k-jK4RVr3ezQjx-52" value="1" style="text;html=1;align=center;verticalAlign=middle;resizable=0;points=[];autosize=1;strokeColor=none;fillColor=none;" parent="1" vertex="1">
          <mxGeometry x="259" y="-107" width="20" height="20" as="geometry" />
        </mxCell>
        <mxCell id="bsMHO7k-jK4RVr3ezQjx-53" value="2" style="text;html=1;align=center;verticalAlign=middle;resizable=0;points=[];autosize=1;strokeColor=none;fillColor=none;" parent="1" vertex="1">
          <mxGeometry x="379" y="-107" width="20" height="20" as="geometry" />
        </mxCell>
        <mxCell id="bsMHO7k-jK4RVr3ezQjx-54" value="3" style="text;html=1;align=center;verticalAlign=middle;resizable=0;points=[];autosize=1;strokeColor=none;fillColor=none;" parent="1" vertex="1">
          <mxGeometry x="500" y="-107" width="20" height="20" as="geometry" />
        </mxCell>
        <mxCell id="bsMHO7k-jK4RVr3ezQjx-55" value="A" style="text;html=1;align=center;verticalAlign=middle;resizable=0;points=[];autosize=1;strokeColor=none;fillColor=none;" parent="1" vertex="1">
          <mxGeometry x="114" y="-69" width="20" height="20" as="geometry" />
        </mxCell>
        <mxCell id="bsMHO7k-jK4RVr3ezQjx-56" value="B" style="text;html=1;align=center;verticalAlign=middle;resizable=0;points=[];autosize=1;strokeColor=none;fillColor=none;" parent="1" vertex="1">
          <mxGeometry x="115" y="17.5" width="20" height="20" as="geometry" />
        </mxCell>
        <mxCell id="bsMHO7k-jK4RVr3ezQjx-62" value="PHI1" style="rhombus;whiteSpace=wrap;html=1;strokeWidth=1;" parent="1" vertex="1">
          <mxGeometry x="320" y="77" width="140" height="80" as="geometry" />
        </mxCell>
        <mxCell id="bsMHO7k-jK4RVr3ezQjx-65" value="" style="endArrow=classic;html=1;rounded=0;" parent="1" edge="1">
          <mxGeometry width="50" height="50" relative="1" as="geometry">
            <mxPoint x="510" y="117" as="sourcePoint" />
            <mxPoint x="510" y="150" as="targetPoint" />
          </mxGeometry>
        </mxCell>
        <mxCell id="bsMHO7k-jK4RVr3ezQjx-66" value="" style="endArrow=classic;html=1;rounded=0;entryX=0.5;entryY=0;entryDx=0;entryDy=0;exitX=0.502;exitY=1.056;exitDx=0;exitDy=0;exitPerimeter=0;" parent="1" source="Ww31mLnuFzs7qHQlqa_S-11" target="bsMHO7k-jK4RVr3ezQjx-62" edge="1">
          <mxGeometry width="50" height="50" relative="1" as="geometry">
            <mxPoint x="390" y="57" as="sourcePoint" />
            <mxPoint x="390" y="101" as="targetPoint" />
          </mxGeometry>
        </mxCell>
        <mxCell id="bsMHO7k-jK4RVr3ezQjx-67" value="D" style="text;html=1;align=center;verticalAlign=middle;resizable=0;points=[];autosize=1;strokeColor=none;fillColor=none;" parent="1" vertex="1">
          <mxGeometry x="115" y="174.5" width="20" height="20" as="geometry" />
        </mxCell>
        <mxCell id="bsMHO7k-jK4RVr3ezQjx-68" value="E" style="text;html=1;align=center;verticalAlign=middle;resizable=0;points=[];autosize=1;strokeColor=none;fillColor=none;" parent="1" vertex="1">
          <mxGeometry x="114" y="311" width="20" height="20" as="geometry" />
        </mxCell>
        <mxCell id="bsMHO7k-jK4RVr3ezQjx-69" value="F" style="text;html=1;align=center;verticalAlign=middle;resizable=0;points=[];autosize=1;strokeColor=none;fillColor=none;" parent="1" vertex="1">
          <mxGeometry x="115" y="389.5" width="20" height="20" as="geometry" />
        </mxCell>
        <mxCell id="bsMHO7k-jK4RVr3ezQjx-70" value="G" style="text;html=1;align=center;verticalAlign=middle;resizable=0;points=[];autosize=1;strokeColor=none;fillColor=none;" parent="1" vertex="1">
          <mxGeometry x="114" y="506" width="20" height="20" as="geometry" />
        </mxCell>
        <mxCell id="bsMHO7k-jK4RVr3ezQjx-71" value="H" style="text;html=1;align=center;verticalAlign=middle;resizable=0;points=[];autosize=1;strokeColor=none;fillColor=none;" parent="1" vertex="1">
          <mxGeometry x="114" y="560.5" width="20" height="20" as="geometry" />
        </mxCell>
        <mxCell id="0i_KQLf-vOwQ2QUWjy_H-2" value="C" style="text;html=1;align=center;verticalAlign=middle;resizable=0;points=[];autosize=1;strokeColor=none;fillColor=none;" parent="1" vertex="1">
          <mxGeometry x="115" y="108" width="19" height="18" as="geometry" />
        </mxCell>
        <mxCell id="Ww31mLnuFzs7qHQlqa_S-2" value="" style="shape=table;html=1;whiteSpace=wrap;startSize=0;container=1;collapsible=0;childLayout=tableLayout;" parent="1" vertex="1">
          <mxGeometry x="300" y="-17" width="180" height="76" as="geometry" />
        </mxCell>
        <mxCell id="Ww31mLnuFzs7qHQlqa_S-3" value="" style="shape=tableRow;horizontal=0;startSize=0;swimlaneHead=0;swimlaneBody=0;top=0;left=0;bottom=0;right=0;collapsible=0;dropTarget=0;fillColor=none;points=[[0,0.5],[1,0.5]];portConstraint=eastwest;" parent="Ww31mLnuFzs7qHQlqa_S-2" vertex="1">
          <mxGeometry width="180" height="8" as="geometry" />
        </mxCell>
        <mxCell id="Ww31mLnuFzs7qHQlqa_S-4" value="" style="shape=partialRectangle;html=1;whiteSpace=wrap;connectable=0;fillColor=none;top=0;left=0;bottom=0;right=0;overflow=hidden;" parent="Ww31mLnuFzs7qHQlqa_S-3" vertex="1">
          <mxGeometry width="78" height="8" as="geometry">
            <mxRectangle width="78" height="8" as="alternateBounds" />
          </mxGeometry>
        </mxCell>
        <mxCell id="Ww31mLnuFzs7qHQlqa_S-5" value="" style="shape=partialRectangle;html=1;whiteSpace=wrap;connectable=0;fillColor=none;top=0;left=0;bottom=0;right=0;overflow=hidden;" parent="Ww31mLnuFzs7qHQlqa_S-3" vertex="1">
          <mxGeometry x="78" width="61" height="8" as="geometry">
            <mxRectangle width="61" height="8" as="alternateBounds" />
          </mxGeometry>
        </mxCell>
        <mxCell id="Ww31mLnuFzs7qHQlqa_S-6" value="" style="shape=partialRectangle;html=1;whiteSpace=wrap;connectable=0;fillColor=none;top=0;left=0;bottom=0;right=0;overflow=hidden;" parent="Ww31mLnuFzs7qHQlqa_S-3" vertex="1">
          <mxGeometry x="139" width="41" height="8" as="geometry">
            <mxRectangle width="41" height="8" as="alternateBounds" />
          </mxGeometry>
        </mxCell>
        <mxCell id="Ww31mLnuFzs7qHQlqa_S-7" value="" style="shape=tableRow;horizontal=0;startSize=0;swimlaneHead=0;swimlaneBody=0;top=0;left=0;bottom=0;right=0;collapsible=0;dropTarget=0;fillColor=none;points=[[0,0.5],[1,0.5]];portConstraint=eastwest;" parent="Ww31mLnuFzs7qHQlqa_S-2" vertex="1">
          <mxGeometry y="8" width="180" height="58" as="geometry" />
        </mxCell>
        <mxCell id="Ww31mLnuFzs7qHQlqa_S-8" value="&lt;span&gt;RA := A * 2^3&amp;nbsp;&lt;/span&gt;&lt;br&gt;&lt;span&gt;RB := B&lt;br&gt;RR := 0&lt;br&gt;i := 3&lt;br&gt;&lt;/span&gt;" style="shape=partialRectangle;html=1;whiteSpace=wrap;connectable=0;fillColor=none;top=0;left=0;bottom=0;right=0;overflow=hidden;" parent="Ww31mLnuFzs7qHQlqa_S-7" vertex="1">
          <mxGeometry width="78" height="58" as="geometry">
            <mxRectangle width="78" height="58" as="alternateBounds" />
          </mxGeometry>
        </mxCell>
        <mxCell id="Ww31mLnuFzs7qHQlqa_S-9" value="Y1&lt;br&gt;Y3&lt;br&gt;Y7" style="shape=partialRectangle;html=1;whiteSpace=wrap;connectable=0;fillColor=none;top=0;left=0;bottom=0;right=0;overflow=hidden;" parent="Ww31mLnuFzs7qHQlqa_S-7" vertex="1">
          <mxGeometry x="78" width="61" height="58" as="geometry">
            <mxRectangle width="61" height="58" as="alternateBounds" />
          </mxGeometry>
        </mxCell>
        <mxCell id="Ww31mLnuFzs7qHQlqa_S-10" value="PHI1&lt;br&gt;FC" style="shape=partialRectangle;html=1;whiteSpace=wrap;connectable=0;fillColor=none;top=0;left=0;bottom=0;right=0;overflow=hidden;" parent="Ww31mLnuFzs7qHQlqa_S-7" vertex="1">
          <mxGeometry x="139" width="41" height="58" as="geometry">
            <mxRectangle width="41" height="58" as="alternateBounds" />
          </mxGeometry>
        </mxCell>
        <mxCell id="Ww31mLnuFzs7qHQlqa_S-11" value="" style="shape=tableRow;horizontal=0;startSize=0;swimlaneHead=0;swimlaneBody=0;top=0;left=0;bottom=0;right=0;collapsible=0;dropTarget=0;fillColor=none;points=[[0,0.5],[1,0.5]];portConstraint=eastwest;" parent="Ww31mLnuFzs7qHQlqa_S-2" vertex="1">
          <mxGeometry y="66" width="180" height="10" as="geometry" />
        </mxCell>
        <mxCell id="Ww31mLnuFzs7qHQlqa_S-12" value="" style="shape=partialRectangle;html=1;whiteSpace=wrap;connectable=0;fillColor=none;top=0;left=0;bottom=0;right=0;overflow=hidden;" parent="Ww31mLnuFzs7qHQlqa_S-11" vertex="1">
          <mxGeometry width="78" height="10" as="geometry">
            <mxRectangle width="78" height="10" as="alternateBounds" />
          </mxGeometry>
        </mxCell>
        <mxCell id="Ww31mLnuFzs7qHQlqa_S-13" value="" style="shape=partialRectangle;html=1;whiteSpace=wrap;connectable=0;fillColor=none;top=0;left=0;bottom=0;right=0;overflow=hidden;" parent="Ww31mLnuFzs7qHQlqa_S-11" vertex="1">
          <mxGeometry x="78" width="61" height="10" as="geometry">
            <mxRectangle width="61" height="10" as="alternateBounds" />
          </mxGeometry>
        </mxCell>
        <mxCell id="Ww31mLnuFzs7qHQlqa_S-14" value="" style="shape=partialRectangle;html=1;whiteSpace=wrap;connectable=0;fillColor=none;top=0;left=0;bottom=0;right=0;overflow=hidden;pointerEvents=1;" parent="Ww31mLnuFzs7qHQlqa_S-11" vertex="1">
          <mxGeometry x="139" width="41" height="10" as="geometry">
            <mxRectangle width="41" height="10" as="alternateBounds" />
          </mxGeometry>
        </mxCell>
        <mxCell id="Ww31mLnuFzs7qHQlqa_S-15" value="" style="shape=table;html=1;whiteSpace=wrap;startSize=0;container=1;collapsible=0;childLayout=tableLayout;" parent="1" vertex="1">
          <mxGeometry x="420" y="151" width="180" height="67" as="geometry" />
        </mxCell>
        <mxCell id="Ww31mLnuFzs7qHQlqa_S-16" value="" style="shape=tableRow;horizontal=0;startSize=0;swimlaneHead=0;swimlaneBody=0;top=0;left=0;bottom=0;right=0;collapsible=0;dropTarget=0;fillColor=none;points=[[0,0.5],[1,0.5]];portConstraint=eastwest;" parent="Ww31mLnuFzs7qHQlqa_S-15" vertex="1">
          <mxGeometry width="180" height="7" as="geometry" />
        </mxCell>
        <mxCell id="Ww31mLnuFzs7qHQlqa_S-17" value="" style="shape=partialRectangle;html=1;whiteSpace=wrap;connectable=0;fillColor=none;top=0;left=0;bottom=0;right=0;overflow=hidden;" parent="Ww31mLnuFzs7qHQlqa_S-16" vertex="1">
          <mxGeometry width="98" height="7" as="geometry">
            <mxRectangle width="98" height="7" as="alternateBounds" />
          </mxGeometry>
        </mxCell>
        <mxCell id="Ww31mLnuFzs7qHQlqa_S-18" value="" style="shape=partialRectangle;html=1;whiteSpace=wrap;connectable=0;fillColor=none;top=0;left=0;bottom=0;right=0;overflow=hidden;" parent="Ww31mLnuFzs7qHQlqa_S-16" vertex="1">
          <mxGeometry x="98" width="50" height="7" as="geometry">
            <mxRectangle width="50" height="7" as="alternateBounds" />
          </mxGeometry>
        </mxCell>
        <mxCell id="Ww31mLnuFzs7qHQlqa_S-19" value="" style="shape=partialRectangle;html=1;whiteSpace=wrap;connectable=0;fillColor=none;top=0;left=0;bottom=0;right=0;overflow=hidden;" parent="Ww31mLnuFzs7qHQlqa_S-16" vertex="1">
          <mxGeometry x="148" width="32" height="7" as="geometry">
            <mxRectangle width="32" height="7" as="alternateBounds" />
          </mxGeometry>
        </mxCell>
        <mxCell id="Ww31mLnuFzs7qHQlqa_S-20" value="" style="shape=tableRow;horizontal=0;startSize=0;swimlaneHead=0;swimlaneBody=0;top=0;left=0;bottom=0;right=0;collapsible=0;dropTarget=0;fillColor=none;points=[[0,0.5],[1,0.5]];portConstraint=eastwest;" parent="Ww31mLnuFzs7qHQlqa_S-15" vertex="1">
          <mxGeometry y="7" width="180" height="51" as="geometry" />
        </mxCell>
        <mxCell id="Ww31mLnuFzs7qHQlqa_S-21" value="RA := -[RAдк]дк&lt;br&gt;RB := -[RBдк]дк&lt;span&gt;&lt;br&gt;&lt;/span&gt;" style="shape=partialRectangle;html=1;whiteSpace=wrap;connectable=0;fillColor=none;top=0;left=0;bottom=0;right=0;overflow=hidden;" parent="Ww31mLnuFzs7qHQlqa_S-20" vertex="1">
          <mxGeometry width="98" height="51" as="geometry">
            <mxRectangle width="98" height="51" as="alternateBounds" />
          </mxGeometry>
        </mxCell>
        <mxCell id="Ww31mLnuFzs7qHQlqa_S-22" value="Y10&lt;br&gt;Y1&lt;br&gt;Y3" style="shape=partialRectangle;html=1;whiteSpace=wrap;connectable=0;fillColor=none;top=0;left=0;bottom=0;right=0;overflow=hidden;" parent="Ww31mLnuFzs7qHQlqa_S-20" vertex="1">
          <mxGeometry x="98" width="50" height="51" as="geometry">
            <mxRectangle width="50" height="51" as="alternateBounds" />
          </mxGeometry>
        </mxCell>
        <mxCell id="Ww31mLnuFzs7qHQlqa_S-23" value="PHI1" style="shape=partialRectangle;html=1;whiteSpace=wrap;connectable=0;fillColor=none;top=0;left=0;bottom=0;right=0;overflow=hidden;" parent="Ww31mLnuFzs7qHQlqa_S-20" vertex="1">
          <mxGeometry x="148" width="32" height="51" as="geometry">
            <mxRectangle width="32" height="51" as="alternateBounds" />
          </mxGeometry>
        </mxCell>
        <mxCell id="Ww31mLnuFzs7qHQlqa_S-24" value="" style="shape=tableRow;horizontal=0;startSize=0;swimlaneHead=0;swimlaneBody=0;top=0;left=0;bottom=0;right=0;collapsible=0;dropTarget=0;fillColor=none;points=[[0,0.5],[1,0.5]];portConstraint=eastwest;" parent="Ww31mLnuFzs7qHQlqa_S-15" vertex="1">
          <mxGeometry y="58" width="180" height="9" as="geometry" />
        </mxCell>
        <mxCell id="Ww31mLnuFzs7qHQlqa_S-25" value="" style="shape=partialRectangle;html=1;whiteSpace=wrap;connectable=0;fillColor=none;top=0;left=0;bottom=0;right=0;overflow=hidden;" parent="Ww31mLnuFzs7qHQlqa_S-24" vertex="1">
          <mxGeometry width="98" height="9" as="geometry">
            <mxRectangle width="98" height="9" as="alternateBounds" />
          </mxGeometry>
        </mxCell>
        <mxCell id="Ww31mLnuFzs7qHQlqa_S-26" value="" style="shape=partialRectangle;html=1;whiteSpace=wrap;connectable=0;fillColor=none;top=0;left=0;bottom=0;right=0;overflow=hidden;" parent="Ww31mLnuFzs7qHQlqa_S-24" vertex="1">
          <mxGeometry x="98" width="50" height="9" as="geometry">
            <mxRectangle width="50" height="9" as="alternateBounds" />
          </mxGeometry>
        </mxCell>
        <mxCell id="Ww31mLnuFzs7qHQlqa_S-27" value="" style="shape=partialRectangle;html=1;whiteSpace=wrap;connectable=0;fillColor=none;top=0;left=0;bottom=0;right=0;overflow=hidden;pointerEvents=1;" parent="Ww31mLnuFzs7qHQlqa_S-24" vertex="1">
          <mxGeometry x="148" width="32" height="9" as="geometry">
            <mxRectangle width="32" height="9" as="alternateBounds" />
          </mxGeometry>
        </mxCell>
        <mxCell id="Ww31mLnuFzs7qHQlqa_S-28" value="" style="shape=table;html=1;whiteSpace=wrap;startSize=0;container=1;collapsible=0;childLayout=tableLayout;" parent="1" vertex="1">
          <mxGeometry x="440" y="366" width="150" height="67" as="geometry" />
        </mxCell>
        <mxCell id="Ww31mLnuFzs7qHQlqa_S-29" value="" style="shape=tableRow;horizontal=0;startSize=0;swimlaneHead=0;swimlaneBody=0;top=0;left=0;bottom=0;right=0;collapsible=0;dropTarget=0;fillColor=none;points=[[0,0.5],[1,0.5]];portConstraint=eastwest;" parent="Ww31mLnuFzs7qHQlqa_S-28" vertex="1">
          <mxGeometry width="150" height="7" as="geometry" />
        </mxCell>
        <mxCell id="Ww31mLnuFzs7qHQlqa_S-30" value="" style="shape=partialRectangle;html=1;whiteSpace=wrap;connectable=0;fillColor=none;top=0;left=0;bottom=0;right=0;overflow=hidden;" parent="Ww31mLnuFzs7qHQlqa_S-29" vertex="1">
          <mxGeometry width="86" height="7" as="geometry">
            <mxRectangle width="86" height="7" as="alternateBounds" />
          </mxGeometry>
        </mxCell>
        <mxCell id="Ww31mLnuFzs7qHQlqa_S-31" value="" style="shape=partialRectangle;html=1;whiteSpace=wrap;connectable=0;fillColor=none;top=0;left=0;bottom=0;right=0;overflow=hidden;" parent="Ww31mLnuFzs7qHQlqa_S-29" vertex="1">
          <mxGeometry x="86" width="32" height="7" as="geometry">
            <mxRectangle width="32" height="7" as="alternateBounds" />
          </mxGeometry>
        </mxCell>
        <mxCell id="Ww31mLnuFzs7qHQlqa_S-32" value="" style="shape=partialRectangle;html=1;whiteSpace=wrap;connectable=0;fillColor=none;top=0;left=0;bottom=0;right=0;overflow=hidden;" parent="Ww31mLnuFzs7qHQlqa_S-29" vertex="1">
          <mxGeometry x="118" width="32" height="7" as="geometry">
            <mxRectangle width="32" height="7" as="alternateBounds" />
          </mxGeometry>
        </mxCell>
        <mxCell id="Ww31mLnuFzs7qHQlqa_S-33" value="" style="shape=tableRow;horizontal=0;startSize=0;swimlaneHead=0;swimlaneBody=0;top=0;left=0;bottom=0;right=0;collapsible=0;dropTarget=0;fillColor=none;points=[[0,0.5],[1,0.5]];portConstraint=eastwest;" parent="Ww31mLnuFzs7qHQlqa_S-28" vertex="1">
          <mxGeometry y="7" width="150" height="51" as="geometry" />
        </mxCell>
        <mxCell id="Ww31mLnuFzs7qHQlqa_S-34" value="RR := RR + RA&lt;span&gt;&lt;br&gt;&lt;/span&gt;" style="shape=partialRectangle;html=1;whiteSpace=wrap;connectable=0;fillColor=none;top=0;left=0;bottom=0;right=0;overflow=hidden;" parent="Ww31mLnuFzs7qHQlqa_S-33" vertex="1">
          <mxGeometry width="86" height="51" as="geometry">
            <mxRectangle width="86" height="51" as="alternateBounds" />
          </mxGeometry>
        </mxCell>
        <mxCell id="Ww31mLnuFzs7qHQlqa_S-35" value="Y11&lt;br&gt;Y5" style="shape=partialRectangle;html=1;whiteSpace=wrap;connectable=0;fillColor=none;top=0;left=0;bottom=0;right=0;overflow=hidden;" parent="Ww31mLnuFzs7qHQlqa_S-33" vertex="1">
          <mxGeometry x="86" width="32" height="51" as="geometry">
            <mxRectangle width="32" height="51" as="alternateBounds" />
          </mxGeometry>
        </mxCell>
        <mxCell id="Ww31mLnuFzs7qHQlqa_S-36" value="SKO" style="shape=partialRectangle;html=1;whiteSpace=wrap;connectable=0;fillColor=none;top=0;left=0;bottom=0;right=0;overflow=hidden;" parent="Ww31mLnuFzs7qHQlqa_S-33" vertex="1">
          <mxGeometry x="118" width="32" height="51" as="geometry">
            <mxRectangle width="32" height="51" as="alternateBounds" />
          </mxGeometry>
        </mxCell>
        <mxCell id="Ww31mLnuFzs7qHQlqa_S-37" value="" style="shape=tableRow;horizontal=0;startSize=0;swimlaneHead=0;swimlaneBody=0;top=0;left=0;bottom=0;right=0;collapsible=0;dropTarget=0;fillColor=none;points=[[0,0.5],[1,0.5]];portConstraint=eastwest;" parent="Ww31mLnuFzs7qHQlqa_S-28" vertex="1">
          <mxGeometry y="58" width="150" height="9" as="geometry" />
        </mxCell>
        <mxCell id="Ww31mLnuFzs7qHQlqa_S-38" value="" style="shape=partialRectangle;html=1;whiteSpace=wrap;connectable=0;fillColor=none;top=0;left=0;bottom=0;right=0;overflow=hidden;" parent="Ww31mLnuFzs7qHQlqa_S-37" vertex="1">
          <mxGeometry width="86" height="9" as="geometry">
            <mxRectangle width="86" height="9" as="alternateBounds" />
          </mxGeometry>
        </mxCell>
        <mxCell id="Ww31mLnuFzs7qHQlqa_S-39" value="" style="shape=partialRectangle;html=1;whiteSpace=wrap;connectable=0;fillColor=none;top=0;left=0;bottom=0;right=0;overflow=hidden;" parent="Ww31mLnuFzs7qHQlqa_S-37" vertex="1">
          <mxGeometry x="86" width="32" height="9" as="geometry">
            <mxRectangle width="32" height="9" as="alternateBounds" />
          </mxGeometry>
        </mxCell>
        <mxCell id="Ww31mLnuFzs7qHQlqa_S-40" value="" style="shape=partialRectangle;html=1;whiteSpace=wrap;connectable=0;fillColor=none;top=0;left=0;bottom=0;right=0;overflow=hidden;pointerEvents=1;" parent="Ww31mLnuFzs7qHQlqa_S-37" vertex="1">
          <mxGeometry x="118" width="32" height="9" as="geometry">
            <mxRectangle width="32" height="9" as="alternateBounds" />
          </mxGeometry>
        </mxCell>
        <mxCell id="OqcFMhrwLSE0nuiAkA_E-1" value="" style="shape=table;html=1;whiteSpace=wrap;startSize=0;container=1;collapsible=0;childLayout=tableLayout;" parent="1" vertex="1">
          <mxGeometry x="250" y="366" width="140" height="67" as="geometry" />
        </mxCell>
        <mxCell id="OqcFMhrwLSE0nuiAkA_E-2" value="" style="shape=tableRow;horizontal=0;startSize=0;swimlaneHead=0;swimlaneBody=0;top=0;left=0;bottom=0;right=0;collapsible=0;dropTarget=0;fillColor=none;points=[[0,0.5],[1,0.5]];portConstraint=eastwest;" parent="OqcFMhrwLSE0nuiAkA_E-1" vertex="1">
          <mxGeometry width="140" height="7" as="geometry" />
        </mxCell>
        <mxCell id="OqcFMhrwLSE0nuiAkA_E-3" value="" style="shape=partialRectangle;html=1;whiteSpace=wrap;connectable=0;fillColor=none;top=0;left=0;bottom=0;right=0;overflow=hidden;" parent="OqcFMhrwLSE0nuiAkA_E-2" vertex="1">
          <mxGeometry width="80" height="7" as="geometry">
            <mxRectangle width="80" height="7" as="alternateBounds" />
          </mxGeometry>
        </mxCell>
        <mxCell id="OqcFMhrwLSE0nuiAkA_E-4" value="" style="shape=partialRectangle;html=1;whiteSpace=wrap;connectable=0;fillColor=none;top=0;left=0;bottom=0;right=0;overflow=hidden;" parent="OqcFMhrwLSE0nuiAkA_E-2" vertex="1">
          <mxGeometry x="80" width="30" height="7" as="geometry">
            <mxRectangle width="30" height="7" as="alternateBounds" />
          </mxGeometry>
        </mxCell>
        <mxCell id="OqcFMhrwLSE0nuiAkA_E-5" value="" style="shape=partialRectangle;html=1;whiteSpace=wrap;connectable=0;fillColor=none;top=0;left=0;bottom=0;right=0;overflow=hidden;" parent="OqcFMhrwLSE0nuiAkA_E-2" vertex="1">
          <mxGeometry x="110" width="30" height="7" as="geometry">
            <mxRectangle width="30" height="7" as="alternateBounds" />
          </mxGeometry>
        </mxCell>
        <mxCell id="OqcFMhrwLSE0nuiAkA_E-6" value="" style="shape=tableRow;horizontal=0;startSize=0;swimlaneHead=0;swimlaneBody=0;top=0;left=0;bottom=0;right=0;collapsible=0;dropTarget=0;fillColor=none;points=[[0,0.5],[1,0.5]];portConstraint=eastwest;" parent="OqcFMhrwLSE0nuiAkA_E-1" vertex="1">
          <mxGeometry y="7" width="140" height="51" as="geometry" />
        </mxCell>
        <mxCell id="OqcFMhrwLSE0nuiAkA_E-7" value="RR := RR + 0&lt;span&gt;&lt;br&gt;&lt;/span&gt;" style="shape=partialRectangle;html=1;whiteSpace=wrap;connectable=0;fillColor=none;top=0;left=0;bottom=0;right=0;overflow=hidden;" parent="OqcFMhrwLSE0nuiAkA_E-6" vertex="1">
          <mxGeometry width="80" height="51" as="geometry">
            <mxRectangle width="80" height="51" as="alternateBounds" />
          </mxGeometry>
        </mxCell>
        <mxCell id="OqcFMhrwLSE0nuiAkA_E-8" value="Y5" style="shape=partialRectangle;html=1;whiteSpace=wrap;connectable=0;fillColor=none;top=0;left=0;bottom=0;right=0;overflow=hidden;" parent="OqcFMhrwLSE0nuiAkA_E-6" vertex="1">
          <mxGeometry x="80" width="30" height="51" as="geometry">
            <mxRectangle width="30" height="51" as="alternateBounds" />
          </mxGeometry>
        </mxCell>
        <mxCell id="OqcFMhrwLSE0nuiAkA_E-9" value="SKO" style="shape=partialRectangle;html=1;whiteSpace=wrap;connectable=0;fillColor=none;top=0;left=0;bottom=0;right=0;overflow=hidden;" parent="OqcFMhrwLSE0nuiAkA_E-6" vertex="1">
          <mxGeometry x="110" width="30" height="51" as="geometry">
            <mxRectangle width="30" height="51" as="alternateBounds" />
          </mxGeometry>
        </mxCell>
        <mxCell id="OqcFMhrwLSE0nuiAkA_E-10" value="" style="shape=tableRow;horizontal=0;startSize=0;swimlaneHead=0;swimlaneBody=0;top=0;left=0;bottom=0;right=0;collapsible=0;dropTarget=0;fillColor=none;points=[[0,0.5],[1,0.5]];portConstraint=eastwest;" parent="OqcFMhrwLSE0nuiAkA_E-1" vertex="1">
          <mxGeometry y="58" width="140" height="9" as="geometry" />
        </mxCell>
        <mxCell id="OqcFMhrwLSE0nuiAkA_E-11" value="" style="shape=partialRectangle;html=1;whiteSpace=wrap;connectable=0;fillColor=none;top=0;left=0;bottom=0;right=0;overflow=hidden;" parent="OqcFMhrwLSE0nuiAkA_E-10" vertex="1">
          <mxGeometry width="80" height="9" as="geometry">
            <mxRectangle width="80" height="9" as="alternateBounds" />
          </mxGeometry>
        </mxCell>
        <mxCell id="OqcFMhrwLSE0nuiAkA_E-12" value="" style="shape=partialRectangle;html=1;whiteSpace=wrap;connectable=0;fillColor=none;top=0;left=0;bottom=0;right=0;overflow=hidden;" parent="OqcFMhrwLSE0nuiAkA_E-10" vertex="1">
          <mxGeometry x="80" width="30" height="9" as="geometry">
            <mxRectangle width="30" height="9" as="alternateBounds" />
          </mxGeometry>
        </mxCell>
        <mxCell id="OqcFMhrwLSE0nuiAkA_E-13" value="" style="shape=partialRectangle;html=1;whiteSpace=wrap;connectable=0;fillColor=none;top=0;left=0;bottom=0;right=0;overflow=hidden;pointerEvents=1;" parent="OqcFMhrwLSE0nuiAkA_E-10" vertex="1">
          <mxGeometry x="110" width="30" height="9" as="geometry">
            <mxRectangle width="30" height="9" as="alternateBounds" />
          </mxGeometry>
        </mxCell>
        <mxCell id="OqcFMhrwLSE0nuiAkA_E-14" value="" style="shape=table;html=1;whiteSpace=wrap;startSize=0;container=1;collapsible=0;childLayout=tableLayout;" parent="1" vertex="1">
          <mxGeometry x="200.01" y="580.5" width="146.75" height="67" as="geometry" />
        </mxCell>
        <mxCell id="OqcFMhrwLSE0nuiAkA_E-15" value="" style="shape=tableRow;horizontal=0;startSize=0;swimlaneHead=0;swimlaneBody=0;top=0;left=0;bottom=0;right=0;collapsible=0;dropTarget=0;fillColor=none;points=[[0,0.5],[1,0.5]];portConstraint=eastwest;" parent="OqcFMhrwLSE0nuiAkA_E-14" vertex="1">
          <mxGeometry width="146.75" height="7" as="geometry" />
        </mxCell>
        <mxCell id="OqcFMhrwLSE0nuiAkA_E-16" value="" style="shape=partialRectangle;html=1;whiteSpace=wrap;connectable=0;fillColor=none;top=0;left=0;bottom=0;right=0;overflow=hidden;" parent="OqcFMhrwLSE0nuiAkA_E-15" vertex="1">
          <mxGeometry width="92" height="7" as="geometry">
            <mxRectangle width="92" height="7" as="alternateBounds" />
          </mxGeometry>
        </mxCell>
        <mxCell id="OqcFMhrwLSE0nuiAkA_E-17" value="" style="shape=partialRectangle;html=1;whiteSpace=wrap;connectable=0;fillColor=none;top=0;left=0;bottom=0;right=0;overflow=hidden;" parent="OqcFMhrwLSE0nuiAkA_E-15" vertex="1">
          <mxGeometry x="92" width="24" height="7" as="geometry">
            <mxRectangle width="24" height="7" as="alternateBounds" />
          </mxGeometry>
        </mxCell>
        <mxCell id="OqcFMhrwLSE0nuiAkA_E-18" value="" style="shape=partialRectangle;html=1;whiteSpace=wrap;connectable=0;fillColor=none;top=0;left=0;bottom=0;right=0;overflow=hidden;" parent="OqcFMhrwLSE0nuiAkA_E-15" vertex="1">
          <mxGeometry x="116" width="31" height="7" as="geometry">
            <mxRectangle width="31" height="7" as="alternateBounds" />
          </mxGeometry>
        </mxCell>
        <mxCell id="OqcFMhrwLSE0nuiAkA_E-19" value="" style="shape=tableRow;horizontal=0;startSize=0;swimlaneHead=0;swimlaneBody=0;top=0;left=0;bottom=0;right=0;collapsible=0;dropTarget=0;fillColor=none;points=[[0,0.5],[1,0.5]];portConstraint=eastwest;" parent="OqcFMhrwLSE0nuiAkA_E-14" vertex="1">
          <mxGeometry y="7" width="146.75" height="51" as="geometry" />
        </mxCell>
        <mxCell id="OqcFMhrwLSE0nuiAkA_E-20" value="i := i - 1&lt;br&gt;&lt;span&gt;RB := RB * 2^+1&lt;br&gt;RA := RA * 2^-1&lt;br&gt;&lt;/span&gt;" style="shape=partialRectangle;html=1;whiteSpace=wrap;connectable=0;fillColor=none;top=0;left=0;bottom=0;right=0;overflow=hidden;" parent="OqcFMhrwLSE0nuiAkA_E-19" vertex="1">
          <mxGeometry width="92" height="51" as="geometry">
            <mxRectangle width="92" height="51" as="alternateBounds" />
          </mxGeometry>
        </mxCell>
        <mxCell id="OqcFMhrwLSE0nuiAkA_E-21" value="YC&lt;br&gt;Y4&lt;br&gt;Y2" style="shape=partialRectangle;html=1;whiteSpace=wrap;connectable=0;fillColor=none;top=0;left=0;bottom=0;right=0;overflow=hidden;" parent="OqcFMhrwLSE0nuiAkA_E-19" vertex="1">
          <mxGeometry x="92" width="24" height="51" as="geometry">
            <mxRectangle width="24" height="51" as="alternateBounds" />
          </mxGeometry>
        </mxCell>
        <mxCell id="OqcFMhrwLSE0nuiAkA_E-22" value="PHI1&lt;br&gt;FC" style="shape=partialRectangle;html=1;whiteSpace=wrap;connectable=0;fillColor=none;top=0;left=0;bottom=0;right=0;overflow=hidden;" parent="OqcFMhrwLSE0nuiAkA_E-19" vertex="1">
          <mxGeometry x="116" width="31" height="51" as="geometry">
            <mxRectangle width="31" height="51" as="alternateBounds" />
          </mxGeometry>
        </mxCell>
        <mxCell id="OqcFMhrwLSE0nuiAkA_E-23" value="" style="shape=tableRow;horizontal=0;startSize=0;swimlaneHead=0;swimlaneBody=0;top=0;left=0;bottom=0;right=0;collapsible=0;dropTarget=0;fillColor=none;points=[[0,0.5],[1,0.5]];portConstraint=eastwest;" parent="OqcFMhrwLSE0nuiAkA_E-14" vertex="1">
          <mxGeometry y="58" width="146.75" height="9" as="geometry" />
        </mxCell>
        <mxCell id="OqcFMhrwLSE0nuiAkA_E-24" value="" style="shape=partialRectangle;html=1;whiteSpace=wrap;connectable=0;fillColor=none;top=0;left=0;bottom=0;right=0;overflow=hidden;" parent="OqcFMhrwLSE0nuiAkA_E-23" vertex="1">
          <mxGeometry width="92" height="9" as="geometry">
            <mxRectangle width="92" height="9" as="alternateBounds" />
          </mxGeometry>
        </mxCell>
        <mxCell id="OqcFMhrwLSE0nuiAkA_E-25" value="" style="shape=partialRectangle;html=1;whiteSpace=wrap;connectable=0;fillColor=none;top=0;left=0;bottom=0;right=0;overflow=hidden;" parent="OqcFMhrwLSE0nuiAkA_E-23" vertex="1">
          <mxGeometry x="92" width="24" height="9" as="geometry">
            <mxRectangle width="24" height="9" as="alternateBounds" />
          </mxGeometry>
        </mxCell>
        <mxCell id="OqcFMhrwLSE0nuiAkA_E-26" value="" style="shape=partialRectangle;html=1;whiteSpace=wrap;connectable=0;fillColor=none;top=0;left=0;bottom=0;right=0;overflow=hidden;pointerEvents=1;" parent="OqcFMhrwLSE0nuiAkA_E-23" vertex="1">
          <mxGeometry x="116" width="31" height="9" as="geometry">
            <mxRectangle width="31" height="9" as="alternateBounds" />
          </mxGeometry>
        </mxCell>
        <mxCell id="EZNh7wdjjM_7pR54PTIj-1" value="" style="shape=table;html=1;whiteSpace=wrap;startSize=0;container=1;collapsible=0;childLayout=tableLayout;" parent="1" vertex="1">
          <mxGeometry x="200.01" y="151" width="140" height="67" as="geometry" />
        </mxCell>
        <mxCell id="EZNh7wdjjM_7pR54PTIj-2" value="" style="shape=tableRow;horizontal=0;startSize=0;swimlaneHead=0;swimlaneBody=0;top=0;left=0;bottom=0;right=0;collapsible=0;dropTarget=0;fillColor=none;points=[[0,0.5],[1,0.5]];portConstraint=eastwest;" parent="EZNh7wdjjM_7pR54PTIj-1" vertex="1">
          <mxGeometry width="140" height="7" as="geometry" />
        </mxCell>
        <mxCell id="EZNh7wdjjM_7pR54PTIj-3" value="" style="shape=partialRectangle;html=1;whiteSpace=wrap;connectable=0;fillColor=none;top=0;left=0;bottom=0;right=0;overflow=hidden;" parent="EZNh7wdjjM_7pR54PTIj-2" vertex="1">
          <mxGeometry width="77" height="7" as="geometry">
            <mxRectangle width="77" height="7" as="alternateBounds" />
          </mxGeometry>
        </mxCell>
        <mxCell id="EZNh7wdjjM_7pR54PTIj-4" value="" style="shape=partialRectangle;html=1;whiteSpace=wrap;connectable=0;fillColor=none;top=0;left=0;bottom=0;right=0;overflow=hidden;" parent="EZNh7wdjjM_7pR54PTIj-2" vertex="1">
          <mxGeometry x="77" width="30" height="7" as="geometry">
            <mxRectangle width="30" height="7" as="alternateBounds" />
          </mxGeometry>
        </mxCell>
        <mxCell id="EZNh7wdjjM_7pR54PTIj-5" value="" style="shape=partialRectangle;html=1;whiteSpace=wrap;connectable=0;fillColor=none;top=0;left=0;bottom=0;right=0;overflow=hidden;" parent="EZNh7wdjjM_7pR54PTIj-2" vertex="1">
          <mxGeometry x="107" width="33" height="7" as="geometry">
            <mxRectangle width="33" height="7" as="alternateBounds" />
          </mxGeometry>
        </mxCell>
        <mxCell id="EZNh7wdjjM_7pR54PTIj-6" value="" style="shape=tableRow;horizontal=0;startSize=0;swimlaneHead=0;swimlaneBody=0;top=0;left=0;bottom=0;right=0;collapsible=0;dropTarget=0;fillColor=none;points=[[0,0.5],[1,0.5]];portConstraint=eastwest;" parent="EZNh7wdjjM_7pR54PTIj-1" vertex="1">
          <mxGeometry y="7" width="140" height="51" as="geometry" />
        </mxCell>
        <mxCell id="EZNh7wdjjM_7pR54PTIj-7" value="RR := RR + 0&lt;span&gt;&lt;br&gt;&lt;/span&gt;" style="shape=partialRectangle;html=1;whiteSpace=wrap;connectable=0;fillColor=none;top=0;left=0;bottom=0;right=0;overflow=hidden;" parent="EZNh7wdjjM_7pR54PTIj-6" vertex="1">
          <mxGeometry width="77" height="51" as="geometry">
            <mxRectangle width="77" height="51" as="alternateBounds" />
          </mxGeometry>
        </mxCell>
        <mxCell id="EZNh7wdjjM_7pR54PTIj-8" value="Y5" style="shape=partialRectangle;html=1;whiteSpace=wrap;connectable=0;fillColor=none;top=0;left=0;bottom=0;right=0;overflow=hidden;" parent="EZNh7wdjjM_7pR54PTIj-6" vertex="1">
          <mxGeometry x="77" width="30" height="51" as="geometry">
            <mxRectangle width="30" height="51" as="alternateBounds" />
          </mxGeometry>
        </mxCell>
        <mxCell id="EZNh7wdjjM_7pR54PTIj-9" value="SKO" style="shape=partialRectangle;html=1;whiteSpace=wrap;connectable=0;fillColor=none;top=0;left=0;bottom=0;right=0;overflow=hidden;" parent="EZNh7wdjjM_7pR54PTIj-6" vertex="1">
          <mxGeometry x="107" width="33" height="51" as="geometry">
            <mxRectangle width="33" height="51" as="alternateBounds" />
          </mxGeometry>
        </mxCell>
        <mxCell id="EZNh7wdjjM_7pR54PTIj-10" value="" style="shape=tableRow;horizontal=0;startSize=0;swimlaneHead=0;swimlaneBody=0;top=0;left=0;bottom=0;right=0;collapsible=0;dropTarget=0;fillColor=none;points=[[0,0.5],[1,0.5]];portConstraint=eastwest;" parent="EZNh7wdjjM_7pR54PTIj-1" vertex="1">
          <mxGeometry y="58" width="140" height="9" as="geometry" />
        </mxCell>
        <mxCell id="EZNh7wdjjM_7pR54PTIj-11" value="" style="shape=partialRectangle;html=1;whiteSpace=wrap;connectable=0;fillColor=none;top=0;left=0;bottom=0;right=0;overflow=hidden;" parent="EZNh7wdjjM_7pR54PTIj-10" vertex="1">
          <mxGeometry width="77" height="9" as="geometry">
            <mxRectangle width="77" height="9" as="alternateBounds" />
          </mxGeometry>
        </mxCell>
        <mxCell id="EZNh7wdjjM_7pR54PTIj-12" value="" style="shape=partialRectangle;html=1;whiteSpace=wrap;connectable=0;fillColor=none;top=0;left=0;bottom=0;right=0;overflow=hidden;" parent="EZNh7wdjjM_7pR54PTIj-10" vertex="1">
          <mxGeometry x="77" width="30" height="9" as="geometry">
            <mxRectangle width="30" height="9" as="alternateBounds" />
          </mxGeometry>
        </mxCell>
        <mxCell id="EZNh7wdjjM_7pR54PTIj-13" value="" style="shape=partialRectangle;html=1;whiteSpace=wrap;connectable=0;fillColor=none;top=0;left=0;bottom=0;right=0;overflow=hidden;pointerEvents=1;" parent="EZNh7wdjjM_7pR54PTIj-10" vertex="1">
          <mxGeometry x="107" width="33" height="9" as="geometry">
            <mxRectangle width="33" height="9" as="alternateBounds" />
          </mxGeometry>
        </mxCell>
        <mxCell id="EZNh7wdjjM_7pR54PTIj-16" value="" style="endArrow=classic;html=1;rounded=0;exitX=0.502;exitY=1.056;exitDx=0;exitDy=0;exitPerimeter=0;entryX=0.501;entryY=-0.042;entryDx=0;entryDy=0;entryPerimeter=0;" parent="1" edge="1" target="EZNh7wdjjM_7pR54PTIj-2">
          <mxGeometry width="50" height="50" relative="1" as="geometry">
            <mxPoint x="270.3599999999999" y="116.55999999999995" as="sourcePoint" />
            <mxPoint x="270" y="140" as="targetPoint" />
          </mxGeometry>
        </mxCell>
        <mxCell id="cMtYCwhaJ8jYhWlKDUyy-1" value="" style="endArrow=classic;html=1;rounded=0;entryX=0.202;entryY=-0.048;entryDx=0;entryDy=0;entryPerimeter=0;" edge="1" parent="1" target="OqcFMhrwLSE0nuiAkA_E-15">
          <mxGeometry width="50" height="50" relative="1" as="geometry">
            <mxPoint x="227" y="218" as="sourcePoint" />
            <mxPoint x="230" y="566" as="targetPoint" />
          </mxGeometry>
        </mxCell>
      </root>
    </mxGraphModel>
  </diagram>
</mxfile>
